<svg width="40" height="30" viewBox="0 0 40 30" fill="none" xmlns="http://www.w3.org/2000/svg">
<path d="M19.99 2.27002C27.01 2.27002 32.7 7.96002 32.7 14.98C32.7 22 27.01 27.685 19.995 27.685C12.975 27.685 7.29 21.995 7.29 14.98C7.285 7.96002 12.975 2.27002 19.99 2.27002Z" fill="#8247E5"/>
<mask id="mask0_15_117" style="mask-type:luminance" maskUnits="userSpaceOnUse" x="11" y="7" width="18" height="16">
<path d="M28.23 7.76501H11.575V22.36H28.23V7.76501Z" fill="white"/>
</mask>
<g mask="url(#mask0_15_117)">
<path d="M24.155 12.21C23.85 12.035 23.46 12.035 23.115 12.21L20.685 13.65L19.035 14.565L16.65 16C16.345 16.175 15.955 16.175 15.61 16L13.745 14.865C13.44 14.69 13.225 14.34 13.225 13.95V11.77C13.225 11.42 13.4 11.075 13.745 10.855L15.61 9.765C15.915 9.59 16.305 9.59 16.65 9.765L18.515 10.9C18.82 11.075 19.035 11.425 19.035 11.815V13.255L20.685 12.295V10.815C20.685 10.465 20.51 10.12 20.165 9.9L16.695 7.85C16.39 7.675 16 7.675 15.655 7.85L12.1 9.945C11.755 10.12 11.58 10.47 11.58 10.815V14.91C11.58 15.26 11.755 15.605 12.1 15.825L15.615 17.875C15.92 18.05 16.31 18.05 16.655 17.875L19.04 16.48L20.69 15.52L23.075 14.125C23.38 13.95 23.77 13.95 24.115 14.125L25.98 15.215C26.285 15.39 26.5 15.74 26.5 16.13V18.31C26.5 18.66 26.325 19.005 25.98 19.225L24.16 20.315C23.855 20.49 23.465 20.49 23.12 20.315L21.25 19.225C20.945 19.05 20.73 18.7 20.73 18.31V16.915L19.08 17.875V19.315C19.08 19.665 19.255 20.01 19.6 20.23L23.115 22.28C23.42 22.455 23.81 22.455 24.155 22.28L27.67 20.23C27.975 20.055 28.19 19.705 28.19 19.315V15.175C28.19 14.825 28.015 14.48 27.67 14.26L24.155 12.21Z" fill="white"/>
</g>
</svg>
